<mxfile host="65bd71144e">
    <diagram name="Page-1" id="YGu5XpwTbaYucJJaIHfA">
        <mxGraphModel dx="464" dy="379" grid="1" gridSize="10" guides="1" tooltips="1" connect="1" arrows="1" fold="1" page="0" pageScale="1" pageWidth="850" pageHeight="1100" background="none" math="0" shadow="0">
            <root>
                <mxCell id="0"/>
                <mxCell id="1" parent="0"/>
                <mxCell id="PP7ZFoLYRigoSh6CBem2-3" style="edgeStyle=orthogonalEdgeStyle;rounded=0;orthogonalLoop=1;jettySize=auto;html=1;" parent="1" source="PP7ZFoLYRigoSh6CBem2-1" target="PP7ZFoLYRigoSh6CBem2-2" edge="1">
                    <mxGeometry relative="1" as="geometry"/>
                </mxCell>
                <mxCell id="PP7ZFoLYRigoSh6CBem2-1" value="Start" style="ellipse;whiteSpace=wrap;html=1;aspect=fixed;" parent="1" vertex="1">
                    <mxGeometry x="380" y="140" width="80" height="80" as="geometry"/>
                </mxCell>
                <mxCell id="zkUFhymecB6T55NUKWI7-6" value="" style="edgeStyle=orthogonalEdgeStyle;rounded=0;orthogonalLoop=1;jettySize=auto;html=1;" parent="1" source="PP7ZFoLYRigoSh6CBem2-2" target="zkUFhymecB6T55NUKWI7-5" edge="1">
                    <mxGeometry relative="1" as="geometry"/>
                </mxCell>
                <mxCell id="PP7ZFoLYRigoSh6CBem2-2" value="&lt;b&gt;Initialize game board&lt;/b&gt;" style="rounded=0;whiteSpace=wrap;html=1;" parent="1" vertex="1">
                    <mxGeometry x="360" y="320" width="120" height="60" as="geometry"/>
                </mxCell>
                <mxCell id="zkUFhymecB6T55NUKWI7-8" value="" style="edgeStyle=orthogonalEdgeStyle;rounded=0;orthogonalLoop=1;jettySize=auto;html=1;" parent="1" source="zkUFhymecB6T55NUKWI7-5" target="zkUFhymecB6T55NUKWI7-7" edge="1">
                    <mxGeometry relative="1" as="geometry"/>
                </mxCell>
                <mxCell id="zkUFhymecB6T55NUKWI7-5" value="&lt;b&gt;Set current player to 'X'&lt;/b&gt;" style="whiteSpace=wrap;html=1;rounded=0;strokeWidth=1;perimeterSpacing=0;spacing=8;" parent="1" vertex="1">
                    <mxGeometry x="360" y="460" width="120" height="60" as="geometry"/>
                </mxCell>
                <mxCell id="7XckkaWi-MHPMV-D5ZwS-2" value="" style="edgeStyle=orthogonalEdgeStyle;rounded=0;orthogonalLoop=1;jettySize=auto;html=1;" parent="1" source="zkUFhymecB6T55NUKWI7-7" target="7XckkaWi-MHPMV-D5ZwS-1" edge="1">
                    <mxGeometry relative="1" as="geometry"/>
                </mxCell>
                <mxCell id="zkUFhymecB6T55NUKWI7-7" value="&lt;b&gt;Select a space on the board&lt;/b&gt;" style="whiteSpace=wrap;html=1;rounded=0;strokeWidth=1;spacing=8;" parent="1" vertex="1">
                    <mxGeometry x="360" y="600" width="120" height="60" as="geometry"/>
                </mxCell>
                <mxCell id="7XckkaWi-MHPMV-D5ZwS-6" value="" style="edgeStyle=orthogonalEdgeStyle;rounded=0;orthogonalLoop=1;jettySize=auto;html=1;" parent="1" source="7XckkaWi-MHPMV-D5ZwS-1" target="7XckkaWi-MHPMV-D5ZwS-5" edge="1">
                    <mxGeometry relative="1" as="geometry"/>
                </mxCell>
                <mxCell id="7XckkaWi-MHPMV-D5ZwS-10" value="No" style="edgeLabel;html=1;align=center;verticalAlign=middle;resizable=0;points=[];" parent="7XckkaWi-MHPMV-D5ZwS-6" vertex="1" connectable="0">
                    <mxGeometry x="-0.1208" y="1" relative="1" as="geometry">
                        <mxPoint as="offset"/>
                    </mxGeometry>
                </mxCell>
                <mxCell id="7XckkaWi-MHPMV-D5ZwS-8" value="" style="edgeStyle=orthogonalEdgeStyle;rounded=0;orthogonalLoop=1;jettySize=auto;html=1;" parent="1" source="7XckkaWi-MHPMV-D5ZwS-1" target="7XckkaWi-MHPMV-D5ZwS-7" edge="1">
                    <mxGeometry relative="1" as="geometry"/>
                </mxCell>
                <mxCell id="7XckkaWi-MHPMV-D5ZwS-9" value="Yes" style="edgeLabel;html=1;align=center;verticalAlign=middle;resizable=0;points=[];" parent="7XckkaWi-MHPMV-D5ZwS-8" vertex="1" connectable="0">
                    <mxGeometry x="-0.2528" relative="1" as="geometry">
                        <mxPoint as="offset"/>
                    </mxGeometry>
                </mxCell>
                <mxCell id="7XckkaWi-MHPMV-D5ZwS-1" value="is&lt;br&gt;the space empty?" style="rhombus;rounded=0;strokeWidth=1;spacing=8;whiteSpace=wrap;html=1;" parent="1" vertex="1">
                    <mxGeometry x="380" y="740" width="80" height="80" as="geometry"/>
                </mxCell>
                <mxCell id="7XckkaWi-MHPMV-D5ZwS-5" value="&lt;font color=&quot;#ff3333&quot;&gt;Do Nothing&lt;/font&gt;" style="whiteSpace=wrap;html=1;rounded=0;strokeWidth=1;spacing=8;" parent="1" vertex="1">
                    <mxGeometry x="520" y="750" width="120" height="60" as="geometry"/>
                </mxCell>
                <mxCell id="7XckkaWi-MHPMV-D5ZwS-12" value="" style="edgeStyle=orthogonalEdgeStyle;rounded=0;orthogonalLoop=1;jettySize=auto;html=1;" parent="1" source="7XckkaWi-MHPMV-D5ZwS-7" target="7XckkaWi-MHPMV-D5ZwS-11" edge="1">
                    <mxGeometry relative="1" as="geometry"/>
                </mxCell>
                <mxCell id="7XckkaWi-MHPMV-D5ZwS-7" value="Place the mark in the selected space" style="whiteSpace=wrap;html=1;rounded=0;strokeWidth=1;spacing=8;" parent="1" vertex="1">
                    <mxGeometry x="360" y="910" width="120" height="60" as="geometry"/>
                </mxCell>
                <mxCell id="7XckkaWi-MHPMV-D5ZwS-14" value="Yes" style="edgeStyle=orthogonalEdgeStyle;rounded=0;orthogonalLoop=1;jettySize=auto;html=1;" parent="1" source="7XckkaWi-MHPMV-D5ZwS-11" target="7XckkaWi-MHPMV-D5ZwS-13" edge="1">
                    <mxGeometry relative="1" as="geometry"/>
                </mxCell>
                <mxCell id="7XckkaWi-MHPMV-D5ZwS-16" value="" style="edgeStyle=orthogonalEdgeStyle;rounded=0;orthogonalLoop=1;jettySize=auto;html=1;" parent="1" source="7XckkaWi-MHPMV-D5ZwS-11" edge="1">
                    <mxGeometry relative="1" as="geometry">
                        <mxPoint x="420" y="1210" as="targetPoint"/>
                    </mxGeometry>
                </mxCell>
                <mxCell id="7XckkaWi-MHPMV-D5ZwS-17" value="No" style="edgeLabel;html=1;align=center;verticalAlign=middle;resizable=0;points=[];" parent="7XckkaWi-MHPMV-D5ZwS-16" vertex="1" connectable="0">
                    <mxGeometry x="-0.327" y="1" relative="1" as="geometry">
                        <mxPoint as="offset"/>
                    </mxGeometry>
                </mxCell>
                <mxCell id="7XckkaWi-MHPMV-D5ZwS-19" value="" style="edgeStyle=orthogonalEdgeStyle;rounded=0;orthogonalLoop=1;jettySize=auto;html=1;" parent="1" source="7XckkaWi-MHPMV-D5ZwS-11" target="7XckkaWi-MHPMV-D5ZwS-18" edge="1">
                    <mxGeometry relative="1" as="geometry"/>
                </mxCell>
                <mxCell id="7XckkaWi-MHPMV-D5ZwS-11" value="is &lt;br&gt;the player won?" style="rhombus;whiteSpace=wrap;html=1;rounded=0;strokeWidth=1;spacing=8;" parent="1" vertex="1">
                    <mxGeometry x="380" y="1040" width="80" height="80" as="geometry"/>
                </mxCell>
                <mxCell id="7XckkaWi-MHPMV-D5ZwS-28" value="" style="edgeStyle=orthogonalEdgeStyle;rounded=0;orthogonalLoop=1;jettySize=auto;html=1;" parent="1" source="7XckkaWi-MHPMV-D5ZwS-13" target="7XckkaWi-MHPMV-D5ZwS-27" edge="1">
                    <mxGeometry relative="1" as="geometry"/>
                </mxCell>
                <mxCell id="7XckkaWi-MHPMV-D5ZwS-13" value="Run the win action&lt;br&gt;&lt;div style=&quot;text-align: left;&quot;&gt;&lt;span style=&quot;font-size: 8px; background-color: initial;&quot;&gt;- Show winning message&lt;/span&gt;&lt;/div&gt;&lt;div style=&quot;text-align: left;&quot;&gt;&lt;span style=&quot;font-size: 8px; background-color: initial;&quot;&gt;- Increase the score&lt;/span&gt;&lt;/div&gt;" style="whiteSpace=wrap;html=1;rounded=0;strokeWidth=1;spacing=8;" parent="1" vertex="1">
                    <mxGeometry x="520" y="1050" width="120" height="60" as="geometry"/>
                </mxCell>
                <mxCell id="7XckkaWi-MHPMV-D5ZwS-21" value="" style="edgeStyle=orthogonalEdgeStyle;rounded=0;orthogonalLoop=1;jettySize=auto;html=1;" parent="1" source="7XckkaWi-MHPMV-D5ZwS-18" target="7XckkaWi-MHPMV-D5ZwS-20" edge="1">
                    <mxGeometry relative="1" as="geometry"/>
                </mxCell>
                <mxCell id="7XckkaWi-MHPMV-D5ZwS-31" value="Yes" style="edgeLabel;html=1;align=center;verticalAlign=middle;resizable=0;points=[];" parent="7XckkaWi-MHPMV-D5ZwS-21" vertex="1" connectable="0">
                    <mxGeometry x="-0.1031" relative="1" as="geometry">
                        <mxPoint as="offset"/>
                    </mxGeometry>
                </mxCell>
                <mxCell id="7XckkaWi-MHPMV-D5ZwS-23" value="" style="edgeStyle=orthogonalEdgeStyle;rounded=0;orthogonalLoop=1;jettySize=auto;html=1;" parent="1" source="7XckkaWi-MHPMV-D5ZwS-18" target="7XckkaWi-MHPMV-D5ZwS-22" edge="1">
                    <mxGeometry relative="1" as="geometry"/>
                </mxCell>
                <mxCell id="7XckkaWi-MHPMV-D5ZwS-25" value="No" style="edgeLabel;html=1;align=center;verticalAlign=middle;resizable=0;points=[];" parent="7XckkaWi-MHPMV-D5ZwS-23" vertex="1" connectable="0">
                    <mxGeometry x="-0.1429" relative="1" as="geometry">
                        <mxPoint as="offset"/>
                    </mxGeometry>
                </mxCell>
                <mxCell id="7XckkaWi-MHPMV-D5ZwS-18" value="is&lt;br style=&quot;border-color: var(--border-color);&quot;&gt;it draw?" style="rhombus;whiteSpace=wrap;html=1;rounded=0;strokeWidth=1;spacing=8;" parent="1" vertex="1">
                    <mxGeometry x="380" y="1200" width="80" height="80" as="geometry"/>
                </mxCell>
                <mxCell id="7XckkaWi-MHPMV-D5ZwS-29" style="edgeStyle=orthogonalEdgeStyle;rounded=0;orthogonalLoop=1;jettySize=auto;html=1;entryX=0.5;entryY=1;entryDx=0;entryDy=0;" parent="1" source="7XckkaWi-MHPMV-D5ZwS-20" target="7XckkaWi-MHPMV-D5ZwS-27" edge="1">
                    <mxGeometry relative="1" as="geometry"/>
                </mxCell>
                <mxCell id="7XckkaWi-MHPMV-D5ZwS-20" value="Run the draw action&lt;br style=&quot;border-color: var(--border-color);&quot;&gt;&lt;div style=&quot;border-color: var(--border-color); text-align: left; font-size: 8px;&quot;&gt;&lt;font style=&quot;font-size: 8px;&quot;&gt;- Show draw message&lt;/font&gt;&lt;/div&gt;" style="whiteSpace=wrap;html=1;rounded=0;strokeWidth=1;spacing=8;" parent="1" vertex="1">
                    <mxGeometry x="520" y="1210" width="130" height="60" as="geometry"/>
                </mxCell>
                <mxCell id="7XckkaWi-MHPMV-D5ZwS-26" style="edgeStyle=orthogonalEdgeStyle;rounded=0;orthogonalLoop=1;jettySize=auto;html=1;entryX=0;entryY=0.5;entryDx=0;entryDy=0;" parent="1" source="7XckkaWi-MHPMV-D5ZwS-22" target="zkUFhymecB6T55NUKWI7-7" edge="1">
                    <mxGeometry relative="1" as="geometry">
                        <Array as="points">
                            <mxPoint x="280" y="1400"/>
                            <mxPoint x="280" y="630"/>
                        </Array>
                    </mxGeometry>
                </mxCell>
                <mxCell id="7XckkaWi-MHPMV-D5ZwS-22" value="Switch the current player" style="whiteSpace=wrap;html=1;rounded=0;strokeWidth=1;spacing=8;" parent="1" vertex="1">
                    <mxGeometry x="360" y="1370" width="120" height="60" as="geometry"/>
                </mxCell>
                <mxCell id="7XckkaWi-MHPMV-D5ZwS-27" value="End" style="ellipse;whiteSpace=wrap;html=1;rounded=0;strokeWidth=1;spacing=8;" parent="1" vertex="1">
                    <mxGeometry x="740" y="1120" width="80" height="80" as="geometry"/>
                </mxCell>
            </root>
        </mxGraphModel>
    </diagram>
</mxfile>